<svg viewBox="0 0 400 400" xmlns="http://www.w3.org/2000/svg">
  <!-- KEBO v2 canon (oni-kaiju) — hueso sobre transparente (para fondos tinta) -->
  <defs>
    <pattern id="ht" width="9" height="9" patternUnits="userSpaceOnUse">
      <circle cx="4.5" cy="4.5" r="1.5" fill="#0B0A09" opacity=".28"/>
    </pattern>
  </defs>
  <g fill="#EFE9DF">
    <path d="M56,332 L82,250 L96,330 Z"/>
    <path d="M92,342 L126,268 L130,342 Z"/>
    <path d="M126,350 L162,286 L158,352 Z"/>
    <ellipse cx="102" cy="372" rx="54" ry="24"/>
    <path d="M344,332 L318,250 L304,330 Z"/>
    <path d="M308,342 L274,268 L270,342 Z"/>
    <path d="M274,350 L238,286 L242,352 Z"/>
    <ellipse cx="298" cy="372" rx="54" ry="24"/>
  </g>
  <path d="M152,330 L248,330 L272,396 L128,396 Z" fill="#EFE9DF"/>
  <ellipse cx="200" cy="372" rx="60" ry="15" fill="url(#ht)"/>
  <path d="M252,74 C284,36 316,20 352,12 C318,44 298,66 284,96 Z" fill="#EFE9DF"/>
  <path d="M148,74 L112,34 L86,42 L128,84 Z" fill="#EFE9DF"/>
  <path d="M200,58 L252,74 L278,100 L290,140 L330,132 L296,166 L298,204 L334,224 L294,244 L268,282 L282,312 L250,304 L222,326 L200,338 L178,326 L150,304 L118,312 L132,282 L106,244 L66,224 L102,204 L104,166 L70,132 L110,140 L122,100 L148,74 Z" fill="#EFE9DF"/>
  <path d="M118,168 L182,152 L172,192 L134,196 Z" fill="#FF4E1B"/>
  <path d="M282,168 L218,152 L228,192 L266,196 Z" fill="#FF4E1B"/>
  <g stroke="#0B0A09" stroke-width="5" stroke-linecap="round">
    <line x1="190" y1="216" x2="197" y2="208"/>
    <line x1="210" y1="216" x2="203" y2="208"/>
  </g>
  <path d="M118,228 L138,246 L154,232 L172,250 L188,236 L200,252 L212,236 L228,250 L246,232 L262,246 L282,228 C268,298 132,298 118,228 Z" fill="#0B0A09"/>
  <g fill="#EFE9DF">
    <path d="M138,282 L148,258 L158,280 Z"/>
    <path d="M160,286 L170,262 L180,285 Z"/>
    <path d="M182,289 L192,264 L202,289 Z"/>
    <path d="M204,289 L214,263 L224,287 Z"/>
    <path d="M226,285 L236,261 L246,282 Z"/>
    <path d="M248,279 L256,258 L264,275 Z"/>
    <path d="M118,228 L106,264 L138,242 Z"/>
    <path d="M282,228 L294,264 L262,242 Z"/>
  </g>
</svg>
