<svg viewBox="0 0 400 440" xmlns="http://www.w3.org/2000/svg">
  <!-- KEBO v3 canon (criatura peluda en tinta plana) — hueso sobre transparente (para fondos tinta) -->
  <defs>
    <pattern id="ht" width="9" height="9" patternUnits="userSpaceOnUse">
      <circle cx="4.5" cy="4.5" r="1.5" fill="#0B0A09" opacity=".28"/>
    </pattern>
  </defs>
  <g fill="#EFE9DF">
    <path d="M94,222 L102,239 L115,232 L116,257 L128,265 L123,288 L130,306 L121,321 L122,345 L110,345 L104,365 L94,355 L84,365 L78,345 L66,345 L67,321 L56,307 L65,288 L60,265 L72,257 L74,235 L86,238 Z"/>
    <path d="M306,222 L314,240 L326,233 L329,257 L338,266 L335,288 L342,306 L333,320 L334,345 L322,346 L316,367 L306,355 L296,365 L290,346 L279,343 L279,320 L271,306 L277,288 L273,266 L284,258 L286,235 L298,239 Z"/>
    <path d="M152,350 L164,360 L181,359 L183,373 L197,381 L187,393 L191,407 L175,411 L167,423 L152,417 L137,422 L129,411 L113,407 L117,393 L109,382 L121,373 L123,359 L140,361 Z"/>
    <path d="M248,351 L260,360 L276,360 L279,373 L291,382 L283,393 L286,406 L271,411 L263,422 L248,418 L233,422 L225,411 L209,407 L213,393 L204,381 L218,373 L220,360 L236,361 Z"/>
    <path d="M200,225 L216,237 L235,230 L245,245 L266,244 L270,260 L295,263 L286,282 L305,291 L291,306 L304,320 L285,330 L290,347 L269,351 L266,368 L246,368 L235,381 L216,376 L200,388 L184,375 L164,383 L154,368 L133,368 L132,351 L111,346 L115,330 L97,320 L110,306 L97,292 L115,282 L108,265 L131,261 L130,241 L155,245 L165,230 L184,235 Z"/>
    <path d="M258,86 C292,48 326,30 362,20 C328,52 308,76 294,104 Z"/>
    <path d="M142,88 L108,48 L82,56 L122,100 Z"/>
    <path d="M200,42 L214,61 L235,45 L242,69 L266,59 L266,83 L288,83 L286,102 L313,105 L298,126 L323,136 L304,152 L319,167 L299,178 L310,197 L286,202 L288,221 L268,223 L264,242 L242,235 L235,259 L215,245 L200,263 L185,245 L166,257 L157,237 L137,241 L134,221 L111,222 L113,202 L87,199 L103,178 L82,167 L99,152 L80,136 L102,126 L92,108 L115,103 L108,80 L134,83 L133,58 L157,67 L166,48 L185,59 Z"/>
  </g>
  <ellipse cx="200" cy="330" rx="56" ry="15" fill="url(#ht)"/>
  <circle cx="152" cy="142" r="35" fill="#0B0A09"/>
  <circle cx="254" cy="148" r="29" fill="#0B0A09"/>
  <circle cx="152" cy="142" r="31" fill="#EFE9DF"/>
  <circle cx="254" cy="148" r="25" fill="#EFE9DF"/>
  <circle cx="154" cy="146" r="19" fill="#FF4E1B"/>
  <circle cx="252" cy="151" r="16" fill="#FF4E1B"/>
  <circle cx="155" cy="147" r="9" fill="#0B0A09"/>
  <circle cx="251" cy="152" r="7.5" fill="#0B0A09"/>
  <circle cx="148" cy="138" r="4" fill="#EFE9DF"/>
  <circle cx="246" cy="144" r="3.5" fill="#EFE9DF"/>
  <path d="M114,112 L196,98 L172,132 Z" fill="#0B0A09"/>
  <path d="M290,116 L212,104 L238,136 Z" fill="#0B0A09"/>
  <ellipse cx="203" cy="200" rx="12" ry="8" fill="#0B0A09"/>
  <path d="M118,218 L138,236 L154,222 L172,240 L188,226 L200,242 L212,226 L228,240 L246,222 L262,236 L282,218 C268,288 132,288 118,218 Z" fill="#0B0A09"/>
  <g fill="#EFE9DF">
    <path d="M138,272 L148,248 L158,270 Z"/>
    <path d="M160,276 L170,252 L180,275 Z"/>
    <path d="M182,279 L192,254 L202,279 Z"/>
    <path d="M204,279 L214,253 L224,277 Z"/>
    <path d="M226,275 L236,251 L246,272 Z"/>
    <path d="M248,269 L256,248 L264,265 Z"/>
    <path d="M118,218 L106,254 L138,232 Z"/>
    <path d="M282,218 L294,254 L262,232 Z"/>
  </g>
  <g fill="#0B0A09">
    <path d="M82,356 L86,374 L94,360 Z"/><path d="M96,360 L102,376 L108,362 Z"/>
    <path d="M292,360 L298,376 L304,360 Z"/><path d="M308,356 L312,372 L318,358 Z"/>
    <path d="M134,412 L140,428 L148,414 Z"/><path d="M152,416 L158,432 L166,417 Z"/><path d="M170,414 L176,428 L182,413 Z"/>
    <path d="M218,414 L224,428 L232,413 Z"/><path d="M236,416 L242,432 L250,417 Z"/><path d="M254,412 L260,426 L266,412 Z"/>
  </g>
</svg>
